<svg xmlns="http://www.w3.org/2000/svg" viewBox="0 0 375 375"><g fill="#7e22ce"><g transform="translate(25.733878, 356.716441)"><path d="M 217.4375 -336 L 305.28125 -336 C 312.632812 -336 316.3125 -332.316406 316.3125 -324.953125 L 316.3125 -215.515625 C 316.3125 -208.160156 312.632812 -204.484375 305.28125 -204.484375 L 205.921875 -204.484375 C 202.722656 -204.484375 199.757812 -205.757812 197.03125 -208.3125 C 194.3125 -210.875 193.113281 -213.753906 193.4375 -216.953125 L 205.4375 -324.953125 C 205.757812 -332.316406 209.757812 -336 217.4375 -336 Z M 142.078125 -11.046875 L 162.234375 -195.359375 C 162.878906 -201.441406 160.160156 -204.484375 154.078125 -204.484375 L 32.15625 -204.484375 C 25.4375 -204.484375 19.597656 -206.960938 14.640625 -211.921875 C 9.679688 -216.878906 7.203125 -222.71875 7.203125 -229.4375 L 7.203125 -269.765625 C 7.203125 -289.597656 13.28125 -305.59375 25.4375 -317.75 C 37.601562 -329.914062 53.601562 -336 73.4375 -336 L 180.953125 -336 C 187.992188 -336 191.359375 -332.316406 191.046875 -324.953125 L 177.125 -199.203125 C 176.476562 -193.117188 179.195312 -190.078125 185.28125 -190.078125 L 291.359375 -190.078125 C 298.078125 -190.078125 303.914062 -187.597656 308.875 -182.640625 C 313.832031 -177.679688 316.3125 -171.84375 316.3125 -165.125 L 316.3125 -66.234375 C 316.3125 -46.398438 310.234375 -30.398438 298.078125 -18.234375 C 285.921875 -6.078125 269.921875 0 250.078125 0 L 152.15625 0 C 145.113281 0 141.753906 -3.679688 142.078125 -11.046875 Z M 115.6875 0 L 18.234375 0 C 10.878906 0 7.203125 -3.679688 7.203125 -11.046875 L 7.203125 -178.5625 C 7.203125 -185.914062 10.878906 -189.59375 18.234375 -189.59375 L 136.3125 -189.59375 C 138.875 -189.59375 141.273438 -188.550781 143.515625 -186.46875 C 145.753906 -184.394531 146.71875 -182.078125 146.40625 -179.515625 L 127.6875 -11.046875 C 127.363281 -3.679688 123.363281 0 115.6875 0 Z"/></g></g></svg>